<svg width="36" height="36" viewBox="0 0 36 36" fill="none" xmlns="http://www.w3.org/2000/svg">
<path d="M31.5 13.5L31.5 4.5M31.5 4.5H22.5M31.5 4.5L19.5 16.5M15 7.5H11.7C9.17976 7.5 7.91965 7.5 6.95704 7.99047C6.11031 8.4219 5.4219 9.11031 4.99047 9.95704C4.5 10.9196 4.5 12.1798 4.5 14.7V24.3C4.5 26.8202 4.5 28.0804 4.99047 29.043C5.4219 29.8897 6.11031 30.5781 6.95704 31.0095C7.91965 31.5 9.17976 31.5 11.7 31.5H21.3C23.8202 31.5 25.0804 31.5 26.043 31.0095C26.8897 30.5781 27.5781 29.8897 28.0095 29.043C28.5 28.0804 28.5 26.8202 28.5 24.3V21" stroke="#939393" stroke-width="2" stroke-linecap="round" stroke-linejoin="round"/>
</svg>
