<svg width="49" height="49" viewBox="0 0 49 49" fill="none" xmlns="http://www.w3.org/2000/svg">
<path fill-rule="evenodd" clip-rule="evenodd" d="M24.4998 1.14844C37.712 1.14844 48.4258 11.8602 48.4258 25.0744C48.4258 35.6455 41.5703 44.614 32.0637 47.7777C30.868 47.9992 30.429 47.2587 30.429 46.6267C30.429 46.0562 30.4512 44.1715 30.4615 42.1722C37.1177 43.6195 38.5223 39.3493 38.5223 39.3493C39.6106 36.5838 41.1788 35.8484 41.1788 35.8484C43.3496 34.3634 41.0152 34.3939 41.0152 34.3939C38.6126 34.5627 37.3475 36.8595 37.3475 36.8595C35.2136 40.5173 31.7503 39.4598 30.385 38.8485C30.1703 37.3021 29.5502 36.2466 28.866 35.6491C34.1803 35.0441 39.7667 32.9926 39.7667 23.8248C39.7667 21.2126 38.8321 19.0783 37.3016 17.4027C37.55 16.8001 38.3689 14.3666 37.0698 11.071C37.0698 11.071 35.0606 10.4279 30.4884 13.5235C28.5799 12.9934 26.5331 12.7275 24.4998 12.7184C22.4665 12.7275 20.4181 12.9934 18.506 13.5235C13.9394 10.4279 11.933 11.071 11.933 11.071C10.6307 14.3666 11.45 16.8001 11.6984 17.4027C10.1643 19.0783 9.23603 21.2126 9.23603 23.8248C9.23603 33.0143 14.8332 35.0378 20.161 35.6301C19.3028 36.3726 18.5381 37.8286 18.5381 40.0608C18.5381 43.2622 18.5659 45.8387 18.5659 46.6267C18.5659 47.2634 18.1352 48.0095 16.9224 47.7745C7.42102 44.6073 0.574219 35.642 0.574219 25.0744C0.574219 11.8602 11.2864 1.14844 24.4998 1.14844ZM39.4647 35.2315C39.5174 35.3504 39.7044 35.386 39.8748 35.3044C40.0483 35.2263 40.1458 35.0643 40.0895 34.945C40.038 34.8226 39.8506 34.7885 39.6775 34.8706C39.5036 34.9486 39.4045 35.1122 39.4647 35.2315ZM38.2878 36.2816C38.4019 36.3874 38.625 36.3383 38.7764 36.1711C38.9329 36.0043 38.9622 35.7812 38.8465 35.6738C38.7288 35.5681 38.5125 35.6176 38.3556 35.7844C38.1991 35.9532 38.1686 36.1747 38.2878 36.2816ZM37.4804 37.6252C37.627 37.7271 37.8667 37.6316 38.0149 37.4188C38.1615 37.206 38.1615 36.9509 38.0117 36.8487C37.8632 36.7464 37.627 36.8384 37.4769 37.0495C37.3307 37.2659 37.3307 37.521 37.4804 37.6252ZM36.115 39.1813C36.2461 39.3259 36.5254 39.2871 36.7299 39.0898C36.9391 38.8968 36.9973 38.6231 36.8658 38.4784C36.733 38.3334 36.4521 38.3742 36.2461 38.57C36.0385 38.7625 35.9751 39.0383 36.115 39.1813ZM34.3502 39.7066C34.4081 39.894 34.6771 39.9792 34.9481 39.8996C35.2187 39.8176 35.3958 39.5981 35.3411 39.4087C35.2849 39.2201 35.0147 39.1313 34.7417 39.2165C34.4715 39.2981 34.294 39.516 34.3502 39.7066ZM32.3419 39.9294C32.3351 40.1268 32.5649 40.2904 32.8494 40.2939C33.1355 40.3003 33.3669 40.1406 33.37 39.9465C33.37 39.7472 33.1454 39.5851 32.8593 39.5804C32.5748 39.5748 32.3419 39.7333 32.3419 39.9294ZM30.3689 39.8538C30.3348 40.0464 30.5325 40.2441 30.815 40.2968C31.0928 40.3475 31.3499 40.2286 31.3852 40.0377C31.4196 39.8403 31.2184 39.6426 30.941 39.5915C30.6581 39.5424 30.4049 39.6581 30.3689 39.8538Z" fill="white"/>
</svg>
