<svg width="45" height="45" viewBox="0 0 45 45" fill="none" xmlns="http://www.w3.org/2000/svg">
<g clip-path="url(#clip0_35_438)">
<path d="M41.6781 0H3.32188C2.44086 0 1.59593 0.349983 0.972955 0.972955C0.349983 1.59593 0 2.44086 0 3.32188V41.6781C0 42.5591 0.349983 43.4041 0.972955 44.0271C1.59593 44.65 2.44086 45 3.32188 45H41.6781C42.5591 45 43.4041 44.65 44.0271 44.0271C44.65 43.4041 45 42.5591 45 41.6781V3.32188C45 2.44086 44.65 1.59593 44.0271 0.972955C43.4041 0.349983 42.5591 0 41.6781 0ZM13.4125 38.3344H6.64688V16.8438H13.4125V38.3344ZM10.025 13.8656C9.25756 13.8613 8.50859 13.6297 7.87263 13.2002C7.23666 12.7706 6.7422 12.1622 6.45165 11.4519C6.16109 10.7416 6.08746 9.96111 6.24006 9.20898C6.39265 8.45685 6.76463 7.76677 7.30904 7.22584C7.85345 6.68491 8.5459 6.31738 9.299 6.16961C10.0521 6.02185 10.8321 6.10049 11.5405 6.3956C12.249 6.69071 12.8541 7.18906 13.2796 7.82777C13.7051 8.46648 13.9319 9.21692 13.9313 9.98438C13.9385 10.4982 13.8422 11.0082 13.6481 11.484C13.4541 11.9598 13.1662 12.3917 12.8017 12.7539C12.4372 13.1161 12.0035 13.4012 11.5264 13.5922C11.0494 13.7832 10.5388 13.8762 10.025 13.8656ZM38.35 38.3531H31.5875V26.6125C31.5875 23.15 30.1156 22.0813 28.2156 22.0813C26.2094 22.0813 24.2406 23.5938 24.2406 26.7V38.3531H17.475V16.8594H23.9813V19.8375H24.0688C24.7219 18.5156 27.0094 16.2563 30.5 16.2563C34.275 16.2563 38.3531 18.4969 38.3531 25.0594L38.35 38.3531Z" fill="white"/>
</g>
<defs>
<clipPath id="clip0_35_438">
<rect width="45" height="45" fill="white"/>
</clipPath>
</defs>
</svg>
